HIERARCHY
ROOT joint_Root
{
	OFFSET 0.0 0.0 0.0
	CHANNELS 6 Xposition Yposition Zposition Zrotation Xrotation Yrotation 
	JOINT Hips
	{
		OFFSET 4.5925 91.4895 -427.239
		CHANNELS 6 Xposition Yposition Zposition Zrotation Xrotation Yrotation 
		JOINT Spine
		{
			OFFSET 15.7357 0.0 0.0
			CHANNELS 6 Xposition Yposition Zposition Zrotation Xrotation Yrotation 
			JOINT Chest
			{
				OFFSET 8.98455 -0.406207 0.0
				CHANNELS 6 Xposition Yposition Zposition Zrotation Xrotation Yrotation 
				JOINT Neck
				{
					OFFSET 16.3773 0.0 0.0
					CHANNELS 6 Xposition Yposition Zposition Zrotation Xrotation Yrotation 
					JOINT Head
					{
						OFFSET 6.45672 0.0 0.0
						CHANNELS 6 Xposition Yposition Zposition Zrotation Xrotation Yrotation 
						End Site
						{
							OFFSET 0.0 0.0 0.0
						}
					}
				}
				JOINT Shoulder_L
				{
					OFFSET 12.9942 -0.242716 4.98039
					CHANNELS 6 Xposition Yposition Zposition Zrotation Xrotation Yrotation 
					JOINT UpperArm_L
					{
						OFFSET 5.34809 0.0 0.0
						CHANNELS 6 Xposition Yposition Zposition Zrotation Xrotation Yrotation 
						JOINT LowerArm_L
						{
							OFFSET 24.3286 1.87007e-05 0.0
							CHANNELS 6 Xposition Yposition Zposition Zrotation Xrotation Yrotation 
							JOINT Hand_L
							{
								OFFSET 22.2916 0.0 0.0
								CHANNELS 6 Xposition Yposition Zposition Zrotation Xrotation Yrotation 
								End Site
								{
									OFFSET 0.0 0.0 0.0
								}
							}
						}
					}
				}
				JOINT Shoulder_R
				{
					OFFSET 12.9945 -0.242716 -4.98039
					CHANNELS 6 Xposition Yposition Zposition Zrotation Xrotation Yrotation 
					JOINT UpperArm_R
					{
						OFFSET -5.34813 0.0 0.0
						CHANNELS 6 Xposition Yposition Zposition Zrotation Xrotation Yrotation 
						JOINT LowerArm_R
						{
							OFFSET -24.3289 0.000322201 0.0
							CHANNELS 6 Xposition Yposition Zposition Zrotation Xrotation Yrotation 
							JOINT Hand_R
							{
								OFFSET -22.2915 -0.000108084 0.0
								CHANNELS 6 Xposition Yposition Zposition Zrotation Xrotation Yrotation 
								End Site
								{
									OFFSET 0.0 0.0 0.0
								}
							}
						}
					}
				}
			}
		}
		JOINT UpperLeg_L
		{
			OFFSET -2.19248 -6.46944 0.0
			CHANNELS 6 Xposition Yposition Zposition Zrotation Xrotation Yrotation 
			JOINT LowerLeg_L
			{
				OFFSET 39.0811 0.0 -1.23785e-05
				CHANNELS 6 Xposition Yposition Zposition Zrotation Xrotation Yrotation 
				JOINT Foot_L
				{
					OFFSET 40.9854 0.0 -1.26872e-05
					CHANNELS 6 Xposition Yposition Zposition Zrotation Xrotation Yrotation 
					JOINT Toes_L
					{
						OFFSET 11.7543 0.0 0.0
						CHANNELS 6 Xposition Yposition Zposition Zrotation Xrotation Yrotation 
						End Site
						{
							OFFSET 0.0 0.0 0.0
						}
					}
				}
			}
		}
		JOINT UpperLeg_R
		{
			OFFSET -2.19251 6.46944 0.0
			CHANNELS 6 Xposition Yposition Zposition Zrotation Xrotation Yrotation 
			JOINT LowerLeg_R
			{
				OFFSET -39.0811 -0.00228153 -0.0401928
				CHANNELS 6 Xposition Yposition Zposition Zrotation Xrotation Yrotation 
				JOINT Foot_R
				{
					OFFSET -40.9854 0.0 0.0
					CHANNELS 6 Xposition Yposition Zposition Zrotation Xrotation Yrotation 
					JOINT Toes_R
					{
						OFFSET -11.7543 0.0 0.0
						CHANNELS 6 Xposition Yposition Zposition Zrotation Xrotation Yrotation 
						End Site
						{
							OFFSET 0.0 0.0 0.0
						}
					}
				}
			}
		}
	}
}
MOTION
Frames:	4
Frame Time:	0.0333333
0.000000 0.000000 0.000000 0.000000 0.000000 -0.000000 -2.479340 91.987900 0.973740 89.542100 -8.031550 3.579960 15.735700 0.000005 -0.000001 70.544500 85.082700 -65.931000 8.984550 -0.406207 -0.000000 1.668720 -3.518780 9.272570 16.377300 -0.000001 -0.000001 7.659180 -0.878707 -2.140320 6.456720 -0.000001 -0.000000 1.842840 -0.069866 -1.564940 12.994200 -0.242716 4.980390 -84.841500 -11.193400 -65.059300 5.348090 -0.000007 -0.000001 -35.644900 -62.436100 -64.448800 24.328600 0.000019 0.000005 5.271660 3.668630 -55.263800 22.291600 -0.000001 0.000005 15.664200 5.381050 -2.331520 12.994500 -0.242716 -4.980390 87.478200 8.274710 -72.984900 -5.348130 -0.000001 -0.000004 -58.637000 24.520300 1.509320 -24.328900 0.000322 -0.000009 0.670485 1.386330 -25.848900 -22.291500 -0.000108 -0.000004 17.588500 5.432730 -4.033050 -2.192480 -6.469440 -0.000000 -173.486000 -19.333900 0.215313 39.081100 -0.000007 -0.000012 -0.112664 0.284973 21.571500 40.985400 -0.000006 -0.000013 -1.262410 8.320210 -67.012900 11.754300 -0.000000 0.000003 -0.000117 -0.001172 -16.622400 -2.192510 6.469440 -0.000001 175.868000 23.230600 179.321000 -39.081100 -0.002282 -0.040193 -0.100063 0.252371 22.275900 -40.985400 0.000008 0.000006 5.319960 21.361300 -68.646300 -11.754300 -0.000006 -0.000006 -0.231415 -0.279493 -16.395500
0.000000 0.000000 0.000000 0.000000 0.000000 -0.000000 -2.787270 92.033500 0.787768 89.498200 -7.015700 3.420870 15.735700 0.000005 -0.000001 71.347300 85.122000 -67.101400 8.984550 -0.406207 -0.000000 1.618510 -3.345920 8.533550 16.377300 -0.000001 -0.000001 6.841310 -0.973707 -2.023900 6.456720 -0.000001 -0.000000 1.652550 -0.088596 -1.665730 12.994200 -0.242716 4.980390 -85.718900 -9.558280 -65.734400 5.348090 -0.000007 -0.000001 -31.380200 -58.362600 -56.109500 24.328600 0.000019 0.000005 5.632980 2.829880 -63.411100 22.291600 -0.000001 0.000005 15.361200 5.368300 -1.935220 12.994500 -0.242716 -4.980390 87.401200 8.530800 -72.987200 -5.348130 -0.000001 -0.000004 -59.272500 24.913700 0.838546 -24.328900 0.000322 -0.000009 0.524522 1.122360 -25.094500 -22.291500 -0.000108 -0.000004 17.649800 5.429700 -3.928860 -2.192480 -6.469440 -0.000000 -173.389000 -18.478700 -0.158455 39.081100 -0.000007 -0.000012 -0.114596 0.292660 21.383700 40.985400 -0.000006 -0.000013 -1.427690 8.575770 -66.664500 11.754300 -0.000000 0.000003 -0.000119 -0.001195 -16.623200 -2.192510 6.469440 -0.000001 176.076000 24.348900 179.412000 -39.081100 -0.002282 -0.040193 -0.105407 0.270949 21.864400 -40.985400 0.000008 0.000006 5.166430 21.500600 -68.370100 -11.754300 -0.000006 -0.000006 -0.129814 -0.157208 -16.474300
0.000000 0.000000 0.000000 0.000000 0.000000 -0.000000 -3.044170 92.101900 0.617670 89.493200 -6.030840 3.281130 15.735700 0.000005 -0.000001 72.958100 85.165800 -69.105600 8.984550 -0.406207 -0.000000 1.593980 -3.039160 7.741850 16.377300 -0.000001 -0.000001 5.967240 -1.056940 -1.840160 6.456720 -0.000001 -0.000000 1.559050 -0.320616 -1.730870 12.994200 -0.242716 4.980390 -86.673700 -7.846710 -66.941100 5.348090 -0.000007 -0.000001 -28.300500 -53.339300 -48.070500 24.328600 0.000019 0.000005 6.498690 2.152580 -71.745600 22.291600 -0.000001 0.000005 14.723000 5.364850 -1.827350 12.994500 -0.242716 -4.980390 87.344000 8.734790 -73.013300 -5.348130 -0.000001 -0.000004 -59.884400 25.664000 0.256830 -24.328900 0.000322 -0.000009 0.345025 0.751458 -24.729100 -22.291500 -0.000108 -0.000004 17.906900 5.428280 -3.880160 -2.192480 -6.469440 -0.000000 -173.357000 -17.742300 -0.428545 39.081100 -0.000007 -0.000012 -0.113152 0.294678 21.006000 40.985400 -0.000006 -0.000013 -1.577660 8.785000 -66.215800 11.754300 -0.000000 0.000003 -0.000124 -0.001239 -16.624900 -2.192510 6.469440 -0.000001 176.209000 25.604300 179.595000 -39.081100 -0.002282 -0.040193 -0.102007 0.269671 21.334400 -40.985400 0.000008 0.000006 5.200430 21.738000 -68.126200 -11.754300 -0.000006 -0.000006 -0.061749 -0.074620 -16.527000
0.000000 0.000000 0.000000 0.000000 0.000000 -0.000000 -3.230630 92.146300 0.410978 89.499400 -5.147700 3.116470 15.735700 0.000005 -0.000001 74.578500 85.191400 -71.164900 8.984550 -0.406207 -0.000000 1.597510 -2.739510 6.860320 16.377300 -0.000001 -0.000001 5.144930 -1.258580 -1.459850 6.456720 -0.000001 -0.000000 1.501490 -0.635894 -1.584240 12.994200 -0.242716 4.980390 -87.580900 -5.948190 -67.822000 5.348090 -0.000007 -0.000001 -27.031300 -46.850700 -41.748600 24.328600 0.000019 0.000005 7.193370 1.450140 -78.661500 22.291600 -0.000001 0.000005 14.568100 5.362890 -1.768980 12.994500 -0.242716 -4.980390 87.376500 8.771790 -73.276600 -5.348130 -0.000001 -0.000004 -60.664800 26.477700 -0.279412 -24.328900 0.000322 -0.000009 0.235455 0.515444 -24.649800 -22.291500 -0.000108 -0.000004 17.841800 5.430230 -3.947100 -2.192480 -6.469440 -0.000000 -173.352000 -17.262000 -0.839724 39.081100 -0.000007 -0.000012 -0.112196 0.294743 20.839800 40.985400 -0.000006 -0.000013 -1.638290 9.161830 -65.857600 11.754300 -0.000000 0.000003 -0.000142 -0.001385 -16.630300 -2.192510 6.469440 -0.000001 176.365000 26.504500 179.552000 -39.081100 -0.002282 -0.040193 -0.104443 0.280201 21.036300 -40.985400 0.000008 0.000006 5.187590 21.768500 -67.924700 -11.754300 -0.000006 -0.000006 -0.000002 -0.000027 -16.574900
